HIERARCHY
ROOT Hips
{
	OFFSET 0.00000 0.00000 0.00000
	CHANNELS 6 Xposition Yposition Zposition Zrotation Yrotation Xrotation 
	JOINT LHipJoint
	{
		OFFSET 0 0 0
		CHANNELS 3 Zrotation Yrotation Xrotation
		JOINT LeftUpLeg
		{
			OFFSET 1.66553 -1.82942 0.76350
			CHANNELS 3 Zrotation Yrotation Xrotation
			JOINT LeftLeg
			{
				OFFSET 2.41740 -6.64177 0.00000
				CHANNELS 3 Zrotation Yrotation Xrotation
				JOINT LeftFoot
				{
					OFFSET 2.71614 -7.46254 0.00000
					CHANNELS 3 Zrotation Yrotation Xrotation
					JOINT LeftToeBase
					{
						OFFSET 0.08005 -0.21993 1.82495
						CHANNELS 3 Zrotation Yrotation Xrotation
						End Site
						{
							OFFSET 0.00000 -0.00000 0.93441
						}
					}
				}
			}
		}
	}
	JOINT RHipJoint
	{
		OFFSET 0 0 0
		CHANNELS 3 Zrotation Yrotation Xrotation
		JOINT RightUpLeg
		{
			OFFSET -1.63725 -1.82942 0.76350
			CHANNELS 3 Zrotation Yrotation Xrotation
			JOINT RightLeg
			{
				OFFSET -2.40538 -6.60872 0.00000
				CHANNELS 3 Zrotation Yrotation Xrotation
				JOINT RightFoot
				{
					OFFSET -2.73312 -7.50919 0.00000
					CHANNELS 3 Zrotation Yrotation Xrotation
					JOINT RightToeBase
					{
						OFFSET -0.15567 -0.42769 1.93504
						CHANNELS 3 Zrotation Yrotation Xrotation
						End Site
						{
							OFFSET -0.00000 -0.00000 1.00100
						}
					}
				}
			}
		}
	}
	JOINT LowerBack
	{
		OFFSET 0 0 0
		CHANNELS 3 Zrotation Yrotation Xrotation
		JOINT Spine
		{
			OFFSET 0.00326 2.30118 -0.13017
			CHANNELS 3 Zrotation Yrotation Xrotation
			JOINT Spine1
			{
				OFFSET 0.02887 2.30677 0.00834
				CHANNELS 3 Zrotation Yrotation Xrotation
				JOINT Neck
				{
					OFFSET 0 0 0
					CHANNELS 3 Zrotation Yrotation Xrotation
					JOINT Neck1
					{
						OFFSET 0.12946 1.68326 0.00713
						CHANNELS 3 Zrotation Yrotation Xrotation
						JOINT Head
						{
							OFFSET -0.24364 1.67243 -0.16079
							CHANNELS 3 Zrotation Yrotation Xrotation
							End Site
							{
								OFFSET -0.09229 1.70819 -0.06383
							}
						}
					}
				}
				JOINT LeftShoulder
				{
					OFFSET 0 0 0
					CHANNELS 3 Zrotation Yrotation Xrotation
					JOINT LeftArm
					{
						OFFSET 3.28104 0.69567 -0.00556
						CHANNELS 3 Zrotation Yrotation Xrotation
						JOINT LeftForeArm
						{
							OFFSET 5.70706 -0.00000 -0.00000
							CHANNELS 3 Zrotation Yrotation Xrotation
							JOINT LeftHand
							{
								OFFSET 3.33243 -0.00000 0.00000
								CHANNELS 3 Zrotation Yrotation Xrotation
								JOINT LeftFingerBase
								{
									OFFSET 0 0 0
									CHANNELS 3 Zrotation Yrotation Xrotation
									JOINT LeftHandIndex1
									{
										OFFSET 0.79269 -0.00000 0.00000
										CHANNELS 3 Zrotation Yrotation Xrotation
										End Site
										{
											OFFSET 0.63909 -0.00000 0.00000
										}
									}
								}
								JOINT LThumb
								{
									OFFSET 0 0 0
									CHANNELS 3 Zrotation Yrotation Xrotation
									End Site
									{
										OFFSET 0.64884 -0.00000 0.64884
									}
								}
							}
						}
					}
				}
				JOINT RightShoulder
				{
					OFFSET 0 0 0
					CHANNELS 3 Zrotation Yrotation Xrotation
					JOINT RightArm
					{
						OFFSET -3.40955 0.64424 0.14010
						CHANNELS 3 Zrotation Yrotation Xrotation
						JOINT RightForeArm
						{
							OFFSET -5.88176 -0.00000 -0.00000
							CHANNELS 3 Zrotation Yrotation Xrotation
							JOINT RightHand
							{
								OFFSET -3.28156 -0.00000 0.00000
								CHANNELS 3 Zrotation Yrotation Xrotation
								JOINT RightFingerBase
								{
									OFFSET 0 0 0
									CHANNELS 3 Zrotation Yrotation Xrotation
									JOINT RightHandIndex1
									{
										OFFSET -0.86313 -0.00000 0.00000
										CHANNELS 3 Zrotation Yrotation Xrotation
										End Site
										{
											OFFSET -0.69587 -0.00000 0.00000
										}
									}
								}
								JOINT RThumb
								{
									OFFSET 0 0 0
									CHANNELS 3 Zrotation Yrotation Xrotation
									End Site
									{
										OFFSET -0.70650 -0.00000 0.70650
									}
								}
							}
						}
					}
				}
			}
		}
	}
}
MOTION
Frames: 7
Frame Time: .0083333
15.7462 15.9388 -20.3101 0 0 0 0 0 0 -21 0 0 0 0 0 0 0 0 0 0 0 0 0 0 21 0 0 0 0 0 0 0 0 0 0 0 0 0 0 0 0 0 0 0 0 0 0 -16 0 0 21 0 0 11 0 0 0 -8 0 0 0 0 0 0 0 0 0 0 0 0 0 0 0 0 0 0 0 0 8 0 0 0 0 0 0 0 0 0 0 0 0 0 0 0 0 0
15.7462 15.9388 -20.3101 -0.6216 -10.2472 9.2373 0.0000 0.0000 0.0000 0.2622 -7.7973 -29.2387 7.8402 16.0005 51.9852 2.6920 -9.6209 -29.5628 4.7401 -13.0850 -39.6873 0.0000 0.0000 0.0000 -6.7605 16.6686 -33.2397 -10.1990 -17.5202 60.1513 -1.1767 3.2404 -19.6850 -1.4282 7.5567 -21.3756 2.2956 -0.7472 12.5202 0.3946 -0.7465 5.7624 -0.7849 -0.3501 -1.0066 17.0891 5.5260 7.2864 -16.4585 9.6041 11.8641 -7.8338 5.0548 3.8938 0.0000 -0.0000 0.0000 -75.8483 0.8036 24.3263 154.7474 -36.4611 -111.5604 -0.0000 0.0000 -37.3832 -3.7112 42.4292 -2.5058 -7.1250 0.0000 -0.0000 -52.1441 64.9537 -28.6006 0.0000 -0.0000 0.0000 86.4724 7.7112 58.6131 -153.6575 37.5449 -110.9044 0.0000 0.0000 1.4576 -53.7081 18.0026 -22.8242 7.1250 -0.0000 -0.0000 -15.8010 -2.1346 -15.8222
15.7147 16.0362 -20.2823 -0.5567 -10.1383 8.9211 0.0000 0.0000 0.0000 -0.0218 -7.5739 -27.8323 7.3095 15.5871 50.0355 2.5536 -9.5125 -28.7683 4.7146 -13.0550 -39.5747 0.0000 0.0000 0.0000 -6.0972 15.8617 -32.8554 -10.0661 -17.4468 59.7090 -1.1356 2.7565 -19.4142 -1.4984 7.7320 -21.9031 2.2455 -0.7149 12.6419 0.3062 -0.7023 5.5044 -0.8516 -0.3321 -1.3412 17.3094 5.4107 8.0374 -16.6033 9.5445 11.4749 -7.9497 5.0654 3.6594 -0.0000 0.0000 0.0000 -75.7069 1.3001 24.1231 154.9263 -36.2793 -111.6665 -0.0000 0.0000 -37.7400 -2.4818 42.4388 -1.6753 -7.1250 0.0000 -0.0000 -51.0584 65.3181 -28.2673 -0.0000 0.0000 0.0000 86.5026 7.2379 58.6889 -153.6440 37.5581 -110.8962 0.0000 0.0000 1.6071 -54.0880 18.7574 -23.9424 7.1250 -0.0000 -0.0000 -15.8121 -0.8839 -16.1988
15.6763 16.1133 -20.2564 -0.5770 -10.0958 8.6083 0.0000 0.0000 0.0000 -0.1553 -7.2210 -26.4433 6.7915 15.1538 48.0815 2.4206 -9.4450 -27.9862 4.6939 -13.0305 -39.4828 0.0000 0.0000 0.0000 -5.3300 15.1214 -32.5534 -9.9197 -17.3644 59.2196 -1.1253 2.4851 -19.3777 -1.4414 7.5902 -21.4762 2.2042 -0.7089 12.6573 0.2540 -0.6986 5.4393 -0.8825 -0.3313 -1.4177 17.2501 5.4963 8.4574 -16.7072 9.6808 10.9733 -7.9811 5.1481 3.4671 -0.0000 0.0000 0.0000 -75.6008 1.3881 23.7849 155.0499 -36.1529 -111.7396 -0.0000 0.0000 -38.1580 -1.9660 42.2006 -1.3209 -7.1250 0.0000 -0.0000 -50.1987 65.3152 -27.6777 -0.0000 0.0000 0.0000 86.4951 7.1121 58.8114 -153.5412 37.6582 -110.8335 0.0000 0.0000 1.7096 -54.1808 19.0288 -24.3112 7.1250 -0.0000 -0.0000 -15.7907 -0.4566 -16.2974
15.6305 16.2189 -20.2284 -0.6782 -10.0941 8.6048 0.0000 0.0000 0.0000 -0.1837 -6.8534 -25.1926 6.2331 14.6504 45.9100 2.2744 -9.2926 -27.1044 4.6808 -13.0151 -39.4249 0.0000 0.0000 0.0000 -4.4452 14.3516 -32.4778 -9.7136 -17.2457 58.5269 -1.1636 2.5281 -19.7073 -1.3903 7.4601 -21.0858 2.0721 -0.7034 12.3247 0.3155 -0.7119 5.3595 -0.7453 -0.3397 -1.3202 17.0224 5.6974 8.3437 -16.7128 9.9235 10.9473 -7.9273 5.2545 3.5105 -0.0000 -0.0000 0.0000 -75.6083 1.4125 23.2904 155.1854 -36.0139 -111.8194 -0.0000 0.0000 -38.9057 -0.4032 41.9327 -0.2694 -7.1250 0.0000 -0.0000 -48.3276 65.5962 -26.7214 -0.0000 -0.0000 0.0000 86.3892 7.1974 58.9809 -153.4853 37.7124 -110.7993 0.0000 0.0000 1.7173 -53.6625 18.5373 -23.3742 7.1250 -0.0000 -0.0000 -15.6320 -1.4063 -15.8498
15.5807 16.3338 -20.1960 -0.6905 -10.1186 8.5759 0.0000 0.0000 0.0000 -0.3283 -6.5797 -23.8012 5.6649 14.0955 43.6214 2.1028 -9.0380 -26.0362 4.6605 -12.9910 -39.3348 0.0000 0.0000 0.0000 -3.6242 13.5284 -32.3335 -9.4620 -17.0960 57.6747 -1.2225 3.3229 -20.0654 -1.3717 7.4121 -20.9423 1.9187 -0.6618 11.9601 0.3148 -0.6807 5.2458 -0.6666 -0.3260 -1.2397 16.9065 5.8194 8.2099 -16.6033 10.0698 11.0933 -7.8581 5.3180 3.5918 -0.0000 0.0000 0.0000 -75.5920 1.5690 22.9412 155.3456 -35.8487 -111.9134 -0.0000 0.0000 -39.8391 2.1446 41.8836 1.4321 -7.1250 0.0000 -0.0000 -45.8652 66.3168 -25.8240 -0.0000 0.0000 0.0000 86.4443 7.2954 59.0796 -153.5340 37.6652 -110.8291 0.0000 0.0000 1.6252 -52.6799 18.1674 -22.2441 7.1250 -0.0000 -0.0000 -15.1733 -2.3964 -15.0705
15.5270 16.4571 -20.1596 -0.6917 -10.1214 8.4505 0.0000 0.0000 0.0000 -0.5092 -6.3320 -22.2010 5.0808 13.4743 41.1708 1.9229 -8.7161 -24.8725 4.6741 -13.0071 -39.3952 0.0000 0.0000 0.0000 -2.7443 12.7457 -31.9443 -9.1472 -16.9015 56.5976 -1.2467 4.6882 -20.0783 -1.2698 7.1422 -20.1373 1.8503 -0.6023 11.6550 0.2784 -0.6160 5.1705 -0.6764 -0.2938 -1.1513 16.6841 5.8729 8.5167 -16.4470 10.1347 10.8646 -7.7758 5.3582 3.4673 0.0000 -0.0000 0.0000 -75.5695 1.6750 22.7973 155.5210 -35.6667 -112.0159 -0.0000 0.0000 -40.4539 4.2804 41.7736 2.8545 -7.1250 0.0000 -0.0000 -43.6371 66.8819 -24.9008 0.0000 -0.0000 0.0000 86.4761 7.3587 58.9687 -153.4925 37.7055 -110.8037 0.0000 0.0000 1.6124 -52.3866 18.5669 -22.4536 7.1250 -0.0000 -0.0000 -14.9010 -1.9808 -14.8951
